<svg width="32" height="32" viewBox="0 0 32 32" fill="none" xmlns="http://www.w3.org/2000/svg">
  <circle cx="16" cy="16" r="14" fill="#ff6b35" stroke="#1a1a1a" stroke-width="2"/>
  <path d="M2 16 C2 16, 8 12, 16 12 C24 12, 30 16, 30 16" stroke="#1a1a1a" stroke-width="1.5" fill="none"/>
  <path d="M2 16 C2 16, 8 20, 16 20 C24 20, 30 16, 30 16" stroke="#1a1a1a" stroke-width="1.5" fill="none"/>
  <path d="M16 2 C16 2, 12 8, 12 16 C12 24, 16 30, 16 30" stroke="#1a1a1a" stroke-width="1.5" fill="none"/>
  <path d="M16 2 C16 2, 20 8, 20 16 C20 24, 16 30, 16 30" stroke="#1a1a1a" stroke-width="1.5" fill="none"/>
</svg>
